Atma-ExtraBold.ufo
<glyph name="quotesingle" format="1">
  <advance width="249"/>
  <unicode hex="0027"/>
  <outline>
    <contour>
      <point x="204" y="737" type="curve"/>
      <point x="173" y="747"/>
      <point x="138" y="751"/>
      <point x="114" y="751" type="curve" smooth="yes"/>
      <point x="85" y="751"/>
      <point x="59" y="746"/>
      <point x="45" y="737" type="curve"/>
      <point x="48" y="655"/>
      <point x="51" y="582"/>
      <point x="57" y="488" type="curve"/>
      <point x="91" y="486"/>
      <point x="138" y="488"/>
      <point x="159" y="495" type="curve"/>
      <point x="181" y="587"/>
      <point x="194" y="670"/>
    </contour>
  </outline>
</glyph>
<glyph name="parenleft" format="1">
  <advance width="379"/>
  <unicode hex="0028"/>
  <outline>
    <contour>
      <point x="168" y="304" type="curve" smooth="yes"/>
      <point x="168" y="463"/>
      <point x="247" y="615"/>
      <point x="403" y="731" type="curve"/>
      <point x="365" y="778"/>
      <point x="327" y="803"/>
      <point x="289" y="817" type="curve"/>
      <point x="120" y="675"/>
      <point x="21" y="507"/>
      <point x="21" y="298" type="curve" smooth="yes"/>
      <point x="21" y="122"/>
      <point x="118" y="-51"/>
      <point x="270" y="-183" type="curve"/>
      <point x="341" y="-150"/>
      <point x="363" y="-130"/>
      <point x="384" y="-101" type="curve"/>
      <point x="232" y="46"/>
      <point x="168" y="156"/>
    </contour>
  </outline>
</glyph>
<glyph name="one" format="1">
  <advance width="491"/>
  <unicode hex="0031"/>
  <outline>
    <contour>
      <point x="338" y="-29" type="curve"/>
      <point x="362" y="260"/>
      <point x="424" y="526"/>
      <point x="462" y="625" type="curve"/>
      <point x="243" y="611" type="line"/>
      <point x="215" y="488"/>
      <point x="168" y="230"/>
      <point x="168" y="50" type="curve" smooth="yes"/>
      <point x="168" y="17"/>
      <point x="168" y="-15"/>
      <point x="171" y="-41" type="curve"/>
      <point x="188" y="-46"/>
      <point x="203" y="-48"/>
      <point x="231" y="-48" type="curve" smooth="yes"/>
      <point x="279" y="-48"/>
      <point x="314" y="-40"/>
    </contour>
    <contour>
      <point x="343" y="701" type="curve"/>
      <point x="245" y="628"/>
      <point x="133" y="563"/>
      <point x="9" y="508" type="curve"/>
      <point x="34" y="446"/>
      <point x="71" y="397"/>
      <point x="118" y="361" type="curve"/>
      <point x="242" y="438"/>
      <point x="356" y="526"/>
      <point x="462" y="625" type="curve"/>
      <point x="432" y="658"/>
      <point x="393" y="684"/>
    </contour>
  </outline>
</glyph>
<glyph name="three" format="1">
  <advance width="575.0"/>
  <unicode hex="0033"/>
  <outline>
    <contour>
      <point x="532" y="504" type="curve"/>
      <point x="532" y="566"/>
      <point x="522" y="625"/>
      <point x="503" y="671" type="curve"/>
      <point x="354" y="670"/>
      <point x="147" y="644"/>
      <point x="34" y="608" type="curve"/>
      <point x="34" y="561"/>
      <point x="40" y="500"/>
      <point x="55" y="458" type="curve"/>
      <point x="233" y="496"/>
      <point x="390" y="504"/>
    </contour>
    <contour>
      <point x="273" y="-57" type="curve" smooth="yes"/>
      <point x="417" y="-57"/>
      <point x="540" y="54"/>
      <point x="540" y="178" type="curve" smooth="yes"/>
      <point x="540" y="269"/>
      <point x="480" y="329"/>
      <point x="337" y="364" type="curve"/>
      <point x="342" y="338" type="line"/>
      <point x="437" y="405"/>
      <point x="477" y="444"/>
      <point x="532" y="504" type="curve"/>
      <point x="385" y="600" type="line"/>
      <point x="331" y="514"/>
      <point x="255" y="449"/>
      <point x="168" y="395" type="curve"/>
      <point x="168" y="343"/>
      <point x="173" y="319"/>
      <point x="183" y="278" type="curve"/>
      <point x="296" y="270"/>
      <point x="334" y="201"/>
      <point x="334" y="137" type="curve" smooth="yes"/>
      <point x="334" y="71"/>
      <point x="310" y="52"/>
      <point x="284" y="52" type="curve" smooth="yes"/>
      <point x="256" y="52"/>
      <point x="213" y="93"/>
      <point x="213" y="189" type="curve"/>
      <point x="141" y="189"/>
      <point x="81" y="179"/>
      <point x="30" y="154" type="curve"/>
      <point x="38" y="2"/>
      <point x="144" y="-57"/>
    </contour>
  </outline>
</glyph>
<glyph name="four" format="1">
  <advance width="653"/>
  <unicode hex="0034"/>
  <outline>
    <contour>
      <point x="600" y="96" type="curve"/>
      <point x="622" y="131"/>
      <point x="635" y="193"/>
      <point x="635" y="239" type="curve"/>
      <point x="523" y="249"/>
      <point x="368" y="265"/>
      <point x="208" y="296" type="curve"/>
      <point x="222" y="264" type="line"/>
      <point x="317" y="426"/>
      <point x="377" y="562"/>
      <point x="434" y="718" type="curve"/>
      <point x="393" y="733"/>
      <point x="320" y="761"/>
      <point x="242" y="761" type="curve"/>
      <point x="175" y="541"/>
      <point x="115" y="413"/>
      <point x="3" y="234" type="curve"/>
      <point x="10" y="200"/>
      <point x="14" y="173"/>
      <point x="24" y="148" type="curve"/>
      <point x="133" y="136"/>
      <point x="499" y="100"/>
    </contour>
    <contour>
      <point x="489" y="-29" type="curve"/>
      <point x="505" y="166"/>
      <point x="543" y="346"/>
      <point x="568" y="412" type="curve"/>
      <point x="539" y="419"/>
      <point x="505" y="424"/>
      <point x="478" y="424" type="curve" smooth="yes"/>
      <point x="415" y="424"/>
      <point x="378" y="413"/>
      <point x="349" y="398" type="curve"/>
      <point x="332" y="323"/>
      <point x="319" y="162"/>
      <point x="319" y="50" type="curve" smooth="yes"/>
      <point x="319" y="17"/>
      <point x="319" y="-15"/>
      <point x="322" y="-41" type="curve"/>
      <point x="339" y="-46"/>
      <point x="354" y="-48"/>
      <point x="382" y="-48" type="curve" smooth="yes"/>
      <point x="430" y="-48"/>
      <point x="465" y="-40"/>
    </contour>
  </outline>
</glyph>
<glyph name="five" format="1">
  <advance width="602"/>
  <unicode hex="0035"/>
  <outline>
    <contour>
      <point x="263" y="-37" type="curve" smooth="yes"/>
      <point x="428" y="-37"/>
      <point x="528" y="83"/>
      <point x="528" y="221" type="curve" smooth="yes"/>
      <point x="528" y="340"/>
      <point x="444" y="425"/>
      <point x="320" y="425" type="curve" smooth="yes"/>
      <point x="302" y="425"/>
      <point x="273" y="423"/>
      <point x="253" y="419" type="curve"/>
      <point x="253" y="442"/>
      <point x="254" y="472"/>
      <point x="258" y="532" type="curve"/>
      <point x="226" y="507" type="line"/>
      <point x="352" y="487"/>
      <point x="435" y="480"/>
      <point x="522" y="479" type="curve"/>
      <point x="541" y="525"/>
      <point x="551" y="584"/>
      <point x="551" y="646" type="curve"/>
      <point x="405" y="646"/>
      <point x="278" y="653"/>
      <point x="94" y="692" type="curve"/>
      <point x="78" y="588"/>
      <point x="69" y="495"/>
      <point x="69" y="411" type="curve" smooth="yes"/>
      <point x="69" y="387"/>
      <point x="69" y="364"/>
      <point x="71" y="341" type="curve"/>
      <point x="83" y="323"/>
      <point x="121" y="289"/>
      <point x="139" y="277" type="curve"/>
      <point x="164" y="285"/>
      <point x="186" y="289"/>
      <point x="206" y="289" type="curve" smooth="yes"/>
      <point x="286" y="289"/>
      <point x="322" y="225"/>
      <point x="322" y="163" type="curve" smooth="yes"/>
      <point x="322" y="99"/>
      <point x="299" y="72"/>
      <point x="261" y="72" type="curve" smooth="yes"/>
      <point x="227" y="72"/>
      <point x="200" y="104"/>
      <point x="200" y="180" type="curve"/>
      <point x="150" y="192"/>
      <point x="82" y="204"/>
      <point x="6" y="204" type="curve"/>
      <point x="15" y="31"/>
      <point x="127" y="-37"/>
    </contour>
  </outline>
</glyph>
<glyph name="less" format="1">
  <advance width="501"/>
  <unicode hex="003C"/>
  <outline>
    <contour>
      <point x="96" y="274" type="line"/>
      <point x="207" y="358"/>
      <point x="334" y="428"/>
      <point x="472" y="487" type="curve"/>
      <point x="463" y="531"/>
      <point x="454" y="560"/>
      <point x="435" y="597" type="curve"/>
      <point x="311" y="551"/>
      <point x="121" y="448"/>
      <point x="29" y="375" type="curve"/>
      <point x="29" y="311" type="line"/>
      <point x="121" y="238"/>
      <point x="311" y="135"/>
      <point x="435" y="89" type="curve"/>
      <point x="454" y="126"/>
      <point x="463" y="155"/>
      <point x="472" y="199" type="curve"/>
      <point x="334" y="258"/>
      <point x="207" y="328"/>
      <point x="96" y="412" type="curve"/>
    </contour>
  </outline>
</glyph>
<glyph name="G" format="1">
  <advance width="642"/>
  <unicode hex="0047"/>
  <outline>
    <contour>
      <point x="534" y="217" type="curve"/>
      <point x="434" y="266" type="line"/>
      <point x="421" y="185"/>
      <point x="380" y="135"/>
      <point x="329" y="135" type="curve" smooth="yes"/>
      <point x="272" y="135"/>
      <point x="245" y="188"/>
      <point x="245" y="323" type="curve" smooth="yes"/>
      <point x="245" y="497"/>
      <point x="280" y="604"/>
      <point x="329" y="604" type="curve" smooth="yes"/>
      <point x="360" y="604"/>
      <point x="376" y="567"/>
      <point x="391" y="478" type="curve"/>
      <point x="466" y="478"/>
      <point x="531" y="486"/>
      <point x="593" y="506" type="curve"/>
      <point x="582" y="637"/>
      <point x="504" y="724"/>
      <point x="366" y="724" type="curve" smooth="yes"/>
      <point x="166" y="724"/>
      <point x="35" y="506"/>
      <point x="35" y="261" type="curve" smooth="yes"/>
      <point x="35" y="84"/>
      <point x="125" y="-21"/>
      <point x="259" y="-21" type="curve" smooth="yes"/>
      <point x="379" y="-21"/>
      <point x="469" y="50"/>
    </contour>
    <contour>
      <point x="642" y="-14" type="curve"/>
      <point x="612" y="103"/>
      <point x="598" y="225"/>
      <point x="600" y="352" type="curve"/>
      <point x="520" y="352"/>
      <point x="458" y="346"/>
      <point x="402" y="330" type="curve"/>
      <point x="410" y="203"/>
      <point x="440" y="81"/>
      <point x="494" y="-34" type="curve"/>
      <point x="550" y="-31"/>
      <point x="599" y="-25"/>
    </contour>
  </outline>
</glyph>
<glyph name="H" format="1">
  <advance width="687"/>
  <unicode hex="0048"/>
  <outline>
    <contour>
      <point x="262" y="24" type="curve"/>
      <point x="262" y="190"/>
      <point x="265" y="550"/>
      <point x="279" y="702" type="curve"/>
      <point x="245.606712824" y="710.586845274"/>
      <point x="216" y="714"/>
      <point x="182" y="714" type="curve" smooth="yes"/>
      <point x="125" y="714"/>
      <point x="75.7287150947" y="698.485810063"/>
      <point x="48" y="680" type="curve"/>
      <point x="48" y="472"/>
      <point x="71" y="186"/>
      <point x="86" y="4" type="curve"/>
      <point x="145" y="4"/>
      <point x="228" y="14"/>
    </contour>
    <contour>
      <point x="639" y="-60" type="curve"/>
      <point x="639" y="142"/>
      <point x="632" y="473"/>
      <point x="620" y="710" type="curve"/>
      <point x="595.650780352" y="726.601740669"/>
      <point x="555" y="742"/>
      <point x="507" y="742" type="curve" smooth="yes"/>
      <point x="476" y="742"/>
      <point x="450.197698115" y="737.765122372"/>
      <point x="420" y="730" type="curve"/>
      <point x="436" y="557"/>
      <point x="440" y="146"/>
      <point x="440" y="-42" type="curve"/>
      <point x="478" y="-53"/>
      <point x="572" y="-60"/>
    </contour>
    <contour>
      <point x="491" y="287" type="curve"/>
      <point x="475" y="445" type="line"/>
      <point x="380" y="445"/>
      <point x="295" y="433"/>
      <point x="205" y="416" type="curve"/>
      <point x="217" y="269" type="line"/>
      <point x="307" y="282"/>
      <point x="401" y="287"/>
    </contour>
  </outline>
</glyph>
<glyph name="M" format="1">
  <advance width="837"/>
  <unicode hex="004D"/>
  <outline>
    <contour>
      <point x="790" y="720" type="curve"/>
      <point x="739" y="744"/>
      <point x="685" y="759"/>
      <point x="634" y="766" type="curve"/>
      <point x="558" y="661"/>
      <point x="484" y="529"/>
      <point x="423" y="373" type="curve"/>
      <point x="480" y="384" type="line"/>
      <point x="424" y="533"/>
      <point x="330" y="664"/>
      <point x="251" y="767" type="curve"/>
      <point x="187" y="758"/>
      <point x="114" y="726"/>
      <point x="60" y="689" type="curve"/>
      <point x="191" y="547"/>
      <point x="290" y="384"/>
      <point x="371" y="204" type="curve"/>
      <point x="408" y="197"/>
      <point x="457" y="196"/>
      <point x="493" y="207" type="curve"/>
      <point x="564" y="391"/>
      <point x="661" y="550"/>
    </contour>
    <contour>
      <point x="239" y="455" type="curve" smooth="yes"/>
      <point x="239" y="501"/>
      <point x="242" y="591"/>
      <point x="258" y="684" type="curve"/>
      <point x="60" y="689" type="line"/>
      <point x="60" y="484"/>
      <point x="80" y="172"/>
      <point x="105" y="-4" type="curve"/>
      <point x="167" y="-4"/>
      <point x="253" y="5"/>
      <point x="289" y="16" type="curve"/>
      <point x="259" y="121"/>
      <point x="239" y="291"/>
    </contour>
    <contour>
      <point x="804" y="-14" type="curve"/>
      <point x="804" y="179"/>
      <point x="801" y="494"/>
      <point x="790" y="720" type="curve"/>
      <point x="624" y="693" type="line"/>
      <point x="624" y="506"/>
      <point x="616" y="177"/>
      <point x="596" y="-51" type="curve"/>
      <point x="693" y="-51"/>
      <point x="747" y="-36"/>
    </contour>
  </outline>
</glyph>
<glyph name="O" format="1">
  <advance width="649"/>
  <unicode hex="004F"/>
  <outline>
    <contour>
      <point x="619" y="432" type="curve" smooth="yes"/>
      <point x="619" y="627"/>
      <point x="525" y="733"/>
      <point x="368" y="733" type="curve" smooth="yes"/>
      <point x="157.937869822" y="733.0"/>
      <point x="25.0" y="558.0"/>
      <point x="25" y="323" type="curve" smooth="yes"/>
      <point x="25.0" y="149.0"/>
      <point x="94.3654618474" y="-20.0"/>
      <point x="279" y="-20" type="curve" smooth="yes"/>
      <point x="542" y="-20"/>
      <point x="619" y="269"/>
    </contour>
    <contour>
      <point x="410" y="377" type="curve" smooth="yes"/>
      <point x="410" y="264"/>
      <point x="402.920454545" y="110.0"/>
      <point x="321" y="110" type="curve"/>
      <point x="247.804347826" y="110.0"/>
      <point x="230.0" y="242.0"/>
      <point x="230" y="351" type="curve" smooth="yes"/>
      <point x="230.0" y="502.0"/>
      <point x="260.611111111" y="603.0"/>
      <point x="325" y="603" type="curve" smooth="yes"/>
      <point x="387" y="603"/>
      <point x="410" y="540"/>
    </contour>
  </outline>
</glyph>
<glyph name="X" format="1">
  <advance width="649"/>
  <unicode hex="0058"/>
  <outline>
    <contour>
      <point x="621" y="40" type="curve"/>
      <point x="589" y="5"/>
      <point x="529" y="-31"/>
      <point x="479" y="-56" type="curve"/>
      <point x="343" y="225"/>
      <point x="213" y="465"/>
      <point x="20" y="679" type="curve"/>
      <point x="70" y="723"/>
      <point x="142" y="770"/>
      <point x="208" y="794" type="curve"/>
      <point x="375" y="562"/>
      <point x="511" y="331"/>
    </contour>
    <contour>
      <point x="100" y="-2" type="curve"/>
      <point x="66" y="19"/>
      <point x="18" y="65"/>
      <point x="-4" y="97" type="curve"/>
      <point x="91" y="212"/>
      <point x="168" y="301"/>
      <point x="255" y="421" type="curve"/>
      <point x="269" y="413" type="line"/>
      <point x="352" y="528"/>
      <point x="427" y="634"/>
      <point x="501" y="771" type="curve"/>
      <point x="552" y="747"/>
      <point x="607" y="700"/>
      <point x="639" y="654" type="curve"/>
      <point x="554" y="525"/>
      <point x="458" y="407"/>
      <point x="361" y="291" type="curve"/>
      <point x="362" y="294" type="line"/>
      <point x="271" y="182"/>
      <point x="200" y="99"/>
    </contour>
  </outline>
</glyph>
<glyph name="Y" format="1">
  <advance width="564"/>
  <unicode hex="0059"/>
  <outline>
    <contour>
      <point x="316" y="329" type="line"/>
      <point x="246" y="462"/>
      <point x="215" y="575"/>
      <point x="194" y="737" type="curve"/>
      <point x="114" y="733"/>
      <point x="51" y="713"/>
      <point x="-5" y="673" type="curve"/>
      <point x="35" y="497"/>
      <point x="103" y="322"/>
      <point x="214" y="188" type="curve"/>
    </contour>
    <contour>
      <point x="246" y="-103" type="curve"/>
      <point x="398" y="137"/>
      <point x="487" y="384"/>
      <point x="559" y="661" type="curve"/>
      <point x="504" y="698"/>
      <point x="442" y="719"/>
      <point x="363" y="729" type="curve"/>
      <point x="313" y="429"/>
      <point x="239" y="211"/>
      <point x="92" y="-33" type="curve"/>
      <point x="128" y="-62"/>
      <point x="198" y="-91"/>
    </contour>
  </outline>
</glyph>
<glyph name="v" format="1">
  <advance width="528"/>
  <unicode hex="0076"/>
  <outline>
    <contour>
      <point x="323" y="27" type="curve"/>
      <point x="411" y="174"/>
      <point x="488.814023028" y="357.142507502"/>
      <point x="531" y="520" type="curve"/>
      <point x="477" y="541"/>
      <point x="414" y="555"/>
      <point x="355" y="559" type="curve"/>
      <point x="339" y="437"/>
      <point x="308.517984609" y="297.607511094"/>
      <point x="273" y="195" type="curve"/>
      <point x="259.176660736" y="314.473146497"/>
      <point x="231.484955955" y="471.457197787"/>
      <point x="191" y="586" type="curve"/>
      <point x="111" y="585"/>
      <point x="34" y="570"/>
      <point x="-26" y="543" type="curve"/>
      <point x="57.6357121903" y="363.921180957"/>
      <point x="115.303358882" y="185.39398239"/>
      <point x="149" y="7" type="curve"/>
      <point x="214" y="7"/>
      <point x="282" y="10"/>
    </contour>
  </outline>
</glyph>
<glyph name="x" format="1">
  <advance width="554"/>
  <unicode hex="0078"/>
  <outline>
    <contour>
      <point x="-2" y="449" type="curve"/>
      <point x="142.163553529" y="295.434475589"/>
      <point x="254" y="125"/>
      <point x="369" y="-56" type="curve"/>
      <point x="418.835018798" y="-31.5710692167"/>
      <point x="478.847786561" y="2.92726655101"/>
      <point x="510" y="37" type="curve"/>
      <point x="414.87589414" y="221.240373455"/>
      <point x="309" y="399"/>
      <point x="184" y="561" type="curve"/>
      <point x="118" y="537"/>
      <point x="47.8140776439" y="491.976851301"/>
    </contour>
    <contour>
      <point x="235" y="295" type="curve"/>
      <point x="217" y="297" type="line"/>
      <point x="140" y="215"/>
      <point x="59" y="135"/>
      <point x="-24" y="58" type="curve"/>
      <point x="-6" y="24"/>
      <point x="23" y="-18"/>
      <point x="53" y="-42" type="curve"/>
      <point x="137" y="23"/>
      <point x="215" y="95"/>
      <point x="294" y="169" type="curve"/>
      <point x="311" y="164" type="line"/>
      <point x="401" y="247"/>
      <point x="487" y="335"/>
      <point x="569" y="429" type="curve"/>
      <point x="541" y="481"/>
      <point x="496" y="530"/>
      <point x="447" y="561" type="curve"/>
      <point x="374" y="460"/>
      <point x="312" y="377"/>
    </contour>
  </outline>
</glyph>
<glyph name="currency" format="1">
  <advance width="561"/>
  <unicode hex="00A4"/>
  <outline>
    <contour>
      <point x="315" y="600" type="curve" smooth="yes"/>
      <point x="155" y="600"/>
      <point x="46" y="484"/>
      <point x="46" y="322" type="curve" smooth="yes"/>
      <point x="46" y="212"/>
      <point x="100" y="113"/>
      <point x="235" y="113" type="curve" smooth="yes"/>
      <point x="439" y="113"/>
      <point x="505" y="306"/>
      <point x="505" y="420" type="curve" smooth="yes"/>
      <point x="505" y="539"/>
      <point x="431" y="600"/>
    </contour>
    <contour>
      <point x="276" y="496" type="curve" smooth="yes"/>
      <point x="306" y="496"/>
      <point x="326" y="465"/>
      <point x="326" y="370" type="curve" smooth="yes"/>
      <point x="326" y="304"/>
      <point x="311" y="217"/>
      <point x="273" y="217" type="curve" smooth="yes"/>
      <point x="240" y="217"/>
      <point x="221" y="287"/>
      <point x="221" y="347" type="curve" smooth="yes"/>
      <point x="221" y="439"/>
      <point x="247" y="496"/>
    </contour>
    <contour>
      <point x="489" y="486" type="line"/>
      <point x="517" y="526"/>
      <point x="545" y="555"/>
      <point x="586" y="591" type="curve"/>
      <point x="565" y="620"/>
      <point x="521" y="654"/>
      <point x="487" y="668" type="curve"/>
      <point x="454" y="637"/>
      <point x="423" y="592"/>
      <point x="406" y="563" type="curve"/>
    </contour>
    <contour>
      <point x="155" y="147" type="curve"/>
      <point x="71" y="225" type="line"/>
      <point x="43" y="184"/>
      <point x="15" y="155"/>
      <point x="-25" y="121" type="curve"/>
      <point x="-4" y="92"/>
      <point x="40" y="57"/>
      <point x="75" y="42" type="curve"/>
      <point x="107" y="74"/>
      <point x="138" y="120"/>
    </contour>
    <contour>
      <point x="461" y="54" type="curve"/>
      <point x="493" y="71"/>
      <point x="532" y="110"/>
      <point x="551" y="142" type="curve"/>
      <point x="522.750926429" y="180.711693412"/>
      <point x="480" y="218"/>
      <point x="452" y="240" type="curve"/>
      <point x="370" y="164" type="line"/>
      <point x="406" y="131"/>
      <point x="431" y="99"/>
    </contour>
    <contour>
      <point x="200" y="569" type="line"/>
      <point x="163" y="602"/>
      <point x="138" y="634"/>
      <point x="109" y="678" type="curve"/>
      <point x="78" y="661"/>
      <point x="37" y="622"/>
      <point x="18" y="589" type="curve"/>
      <point x="45" y="553"/>
      <point x="87" y="516"/>
      <point x="111" y="496" type="curve"/>
    </contour>
  </outline>
</glyph>
<glyph name="dieresis" format="1">
  <advance width="260"/>
  <unicode hex="00A8"/>
  <outline>
    <component base="dotaccent" xOffset="-130"/>
    <component base="dotaccent" xOffset="129"/>
    <contour>
      <point x="129" y="560" type="move" name="_top"/>
    </contour>
  </outline>
</glyph>
<glyph name="plusminus" format="1">
  <advance width="502"/>
  <unicode hex="00B1"/>
  <outline>
    <contour>
      <point x="30" y="147" type="curve"/>
      <point x="24" y="103"/>
      <point x="22" y="69"/>
      <point x="22" y="26" type="curve"/>
      <point x="137" y="8"/>
      <point x="313" y="5"/>
      <point x="444" y="26" type="curve"/>
      <point x="455" y="64"/>
      <point x="461" y="104"/>
      <point x="461" y="146" type="curve"/>
      <point x="313" y="130"/>
      <point x="168" y="129"/>
    </contour>
    <component base="plus" xOffset="2" yOffset="54"/>
  </outline>
</glyph>
<glyph name="guillemotright" format="1">
  <advance width="604"/>
  <unicode hex="00BB"/>
  <outline>
    <contour>
      <point x="125" y="24" type="curve"/>
      <point x="206" y="93"/>
      <point x="276" y="168"/>
      <point x="323" y="267" type="curve"/>
      <point x="213" y="321" type="line"/>
      <point x="157" y="244"/>
      <point x="104" y="189"/>
      <point x="9" y="126" type="curve"/>
      <point x="39" y="75"/>
      <point x="72" y="46"/>
    </contour>
    <contour>
      <point x="6" y="406" type="curve"/>
      <point x="77" y="327"/>
      <point x="138" y="269"/>
      <point x="244" y="211" type="curve"/>
      <point x="323" y="267" type="line"/>
      <point x="239" y="340"/>
      <point x="186" y="407"/>
      <point x="131" y="502" type="curve"/>
      <point x="85" y="481"/>
      <point x="30" y="442"/>
    </contour>
    <contour>
      <point x="399" y="24" type="curve"/>
      <point x="480" y="93"/>
      <point x="550" y="168"/>
      <point x="597" y="267" type="curve"/>
      <point x="487" y="321" type="line"/>
      <point x="431" y="244"/>
      <point x="378" y="189"/>
      <point x="283" y="126" type="curve"/>
      <point x="313" y="75"/>
      <point x="346" y="46"/>
    </contour>
    <contour>
      <point x="280" y="406" type="curve"/>
      <point x="351" y="327"/>
      <point x="412" y="269"/>
      <point x="518" y="211" type="curve"/>
      <point x="597" y="267" type="line"/>
      <point x="513" y="340"/>
      <point x="460" y="407"/>
      <point x="405" y="502" type="curve"/>
      <point x="359" y="481"/>
      <point x="304" y="442"/>
    </contour>
  </outline>
</glyph>
<glyph name="Lslash" format="1">
  <advance width="533"/>
  <unicode hex="0141"/>
  <outline>
    <contour>
      <point x="538" y="-73" type="curve"/>
      <point x="538" y="-25"/>
      <point x="525" y="50"/>
      <point x="515" y="81" type="curve"/>
      <point x="451" y="81"/>
      <point x="367" y="69"/>
      <point x="290" y="47" type="curve"/>
      <point x="275" y="137"/>
      <point x="275" y="257"/>
      <point x="275" y="362" type="curve" smooth="yes"/>
      <point x="275" y="489"/>
      <point x="282" y="607"/>
      <point x="293" y="673" type="curve"/>
      <point x="275" y="675"/>
      <point x="258" y="676"/>
      <point x="241" y="676" type="curve" smooth="yes"/>
      <point x="175" y="676"/>
      <point x="115" y="666"/>
      <point x="62" y="652" type="curve"/>
      <point x="62" y="434"/>
      <point x="94" y="77"/>
      <point x="123" y="-106" type="curve"/>
      <point x="279" y="-84"/>
      <point x="388" y="-73"/>
    </contour>
    <contour>
      <point x="18" y="45" type="curve"/>
      <point x="184" y="146"/>
      <point x="342" y="254"/>
      <point x="494" y="367" type="curve"/>
      <point x="480" y="412"/>
      <point x="451" y="461"/>
      <point x="420" y="486" type="curve"/>
      <point x="267" y="366"/>
      <point x="110" y="254"/>
      <point x="-51" y="150" type="curve"/>
      <point x="-35" y="104"/>
      <point x="-18" y="78"/>
    </contour>
  </outline>
</glyph>
<glyph name="OE" format="1">
  <advance width="944"/>
  <unicode hex="0152"/>
  <outline>
    <contour>
      <point x="619" y="445" type="curve" smooth="yes"/>
      <point x="619" y="640"/>
      <point x="525" y="746"/>
      <point x="368" y="746" type="curve" smooth="yes"/>
      <point x="161" y="746"/>
      <point x="30" y="571"/>
      <point x="30" y="336" type="curve" smooth="yes"/>
      <point x="30" y="162"/>
      <point x="98" y="-7"/>
      <point x="279" y="-7" type="curve" smooth="yes"/>
      <point x="542" y="-7"/>
      <point x="619" y="282"/>
    </contour>
    <contour>
      <point x="410" y="390" type="curve" smooth="yes"/>
      <point x="410" y="277"/>
      <point x="403" y="123"/>
      <point x="322" y="123" type="curve" smooth="yes"/>
      <point x="252" y="123"/>
      <point x="235" y="255"/>
      <point x="235" y="364" type="curve" smooth="yes"/>
      <point x="235" y="515"/>
      <point x="264" y="616"/>
      <point x="325" y="616" type="curve" smooth="yes"/>
      <point x="387" y="616"/>
      <point x="410" y="553"/>
    </contour>
    <contour>
      <point x="916" y="10" type="curve"/>
      <point x="916" y="58"/>
      <point x="908" y="135"/>
      <point x="897" y="165" type="curve"/>
      <point x="832" y="152"/>
      <point x="672" y="133"/>
      <point x="635" y="133" type="curve"/>
      <point x="628" y="210"/>
      <point x="625" y="278"/>
      <point x="625" y="362" type="curve" smooth="yes"/>
      <point x="625" y="489"/>
      <point x="632" y="604"/>
      <point x="643" y="670" type="curve"/>
      <point x="401" y="677" type="line"/>
      <point x="404" y="463"/>
      <point x="441" y="153"/>
      <point x="469" y="-23" type="curve"/>
      <point x="620" y="-23"/>
      <point x="881" y="-1"/>
    </contour>
    <contour>
      <point x="848" y="296" type="curve"/>
      <point x="848" y="359"/>
      <point x="844" y="406"/>
      <point x="832" y="455" type="curve"/>
      <point x="742" y="455"/>
      <point x="660" y="439"/>
      <point x="578" y="412" type="curve"/>
      <point x="587" y="278" type="line"/>
      <point x="672" y="290"/>
      <point x="763" y="296"/>
    </contour>
    <contour>
      <point x="872" y="566" type="curve"/>
      <point x="881" y="609"/>
      <point x="891" y="669"/>
      <point x="891" y="731" type="curve"/>
      <point x="717" y="731"/>
      <point x="563" y="708"/>
      <point x="401" y="677" type="curve"/>
      <point x="430" y="537" type="line"/>
      <point x="575" y="558"/>
      <point x="726" y="566"/>
    </contour>
  </outline>
</glyph>
<glyph name="ring" format="1">
  <advance width="260"/>
  <unicode hex="02DA"/>
  <outline>
    <contour>
      <point x="146" y="770" type="curve" smooth="yes"/>
      <point x="77" y="770"/>
      <point x="20" y="731"/>
      <point x="20" y="662" type="curve" smooth="yes"/>
      <point x="20" y="610"/>
      <point x="52" y="573"/>
      <point x="112" y="573" type="curve" smooth="yes"/>
      <point x="195" y="573"/>
      <point x="239" y="629"/>
      <point x="239" y="690" type="curve" smooth="yes"/>
      <point x="239" y="743"/>
      <point x="202" y="770"/>
    </contour>
    <contour>
      <point x="130" y="723" type="curve" smooth="yes"/>
      <point x="143" y="723"/>
      <point x="149" y="712"/>
      <point x="149" y="677" type="curve" smooth="yes"/>
      <point x="149" y="649"/>
      <point x="144" y="623"/>
      <point x="127" y="623" type="curve" smooth="yes"/>
      <point x="115" y="623"/>
      <point x="108" y="639"/>
      <point x="108" y="667" type="curve" smooth="yes"/>
      <point x="108" y="703"/>
      <point x="117" y="723"/>
    </contour>
    <contour>
      <point x="130" y="560" type="move" name="_top"/>
    </contour>
  </outline>
</glyph>
<glyph name="hungarumlaut" format="1">
  <advance width="260"/>
  <unicode hex="02DD"/>
  <outline>
    <component base="acute" xOffset="-100"/>
    <component base="acute" xOffset="100"/>
    <contour>
      <point x="130" y="560" type="move" name="_top"/>
    </contour>
  </outline>
</glyph>
<glyph name="fraction" format="1">
  <advance width="376"/>
  <unicode hex="2044"/>
  <outline>
    <contour>
      <point x="211" y="236"/>
      <point x="335" y="469"/>
      <point x="446" y="728" type="curve"/>
      <point x="404" y="772"/>
      <point x="348" y="798"/>
      <point x="304" y="805" type="curve"/>
      <point x="226" y="565"/>
      <point x="66" y="249"/>
      <point x="-70" y="18" type="curve"/>
      <point x="-38" y="-9"/>
      <point x="-4" y="-29"/>
      <point x="44" y="-39" type="curve"/>
    </contour>
  </outline>
</glyph>
<glyph name="Euro" format="1">
  <advance width="618"/>
  <unicode hex="20AC"/>
  <outline>
    <contour>
      <point x="478" y="214" type="curve"/>
      <point x="455" y="125"/>
      <point x="426" y="86"/>
      <point x="388" y="86" type="curve" smooth="yes"/>
      <point x="332" y="86"/>
      <point x="315" y="196"/>
      <point x="315" y="271" type="curve" smooth="yes"/>
      <point x="315" y="429"/>
      <point x="343" y="548"/>
      <point x="380" y="548" type="curve" smooth="yes"/>
      <point x="401" y="548"/>
      <point x="421" y="519"/>
      <point x="421" y="418" type="curve"/>
      <point x="515" y="418"/>
      <point x="551" y="430"/>
      <point x="608" y="455" type="curve"/>
      <point x="596" y="591"/>
      <point x="526" y="668"/>
      <point x="417" y="668" type="curve" smooth="yes"/>
      <point x="222" y="668"/>
      <point x="95" y="472"/>
      <point x="95" y="251" type="curve" smooth="yes"/>
      <point x="95" y="45"/>
      <point x="202" y="-40"/>
      <point x="344" y="-40" type="curve" smooth="yes"/>
      <point x="451" y="-40"/>
      <point x="528" y="7"/>
      <point x="601" y="119" type="curve"/>
      <point x="578" y="164"/>
      <point x="530" y="204"/>
    </contour>
    <contour>
      <point x="400" y="319" type="curve"/>
      <point x="411" y="345"/>
      <point x="409" y="404"/>
      <point x="404" y="428" type="curve"/>
      <point x="251" y="410"/>
      <point x="142" y="413"/>
      <point x="7" y="426" type="curve"/>
      <point x="1" y="392"/>
      <point x="8" y="327"/>
      <point x="13" y="303" type="curve"/>
      <point x="108" y="287"/>
      <point x="222" y="290"/>
    </contour>
    <contour>
      <point x="405" y="168" type="curve"/>
      <point x="416" y="194"/>
      <point x="414" y="253"/>
      <point x="409" y="277" type="curve"/>
      <point x="256" y="253"/>
      <point x="151" y="257"/>
      <point x="17" y="270" type="curve"/>
      <point x="11" y="236"/>
      <point x="18" y="171"/>
      <point x="23" y="147" type="curve"/>
      <point x="117" y="131"/>
      <point x="228" y="134"/>
    </contour>
  </outline>
</glyph>
<glyph name="uni20BD" format="1">
  <advance width="634"/>
  <unicode hex="20BD"/>
  <outline>
    <contour>
      <point x="300" y="-48" type="curve"/>
      <point x="295" y="27"/>
      <point x="291" y="103"/>
      <point x="291" y="181" type="curve" smooth="yes"/>
      <point x="291" y="336"/>
      <point x="298" y="489"/>
      <point x="313" y="635" type="curve"/>
      <point x="98" y="639" type="line"/>
      <point x="94" y="590"/>
      <point x="91" y="546"/>
      <point x="91" y="498" type="curve" smooth="yes"/>
      <point x="91" y="351"/>
      <point x="104" y="173"/>
      <point x="128" y="-35" type="curve"/>
      <point x="179" y="-44"/>
      <point x="247" y="-48"/>
    </contour>
    <contour>
      <point x="620" y="517" type="curve" smooth="yes"/>
      <point x="620" y="624"/>
      <point x="531" y="702"/>
      <point x="361" y="702" type="curve" smooth="yes"/>
      <point x="269" y="702"/>
      <point x="183" y="678"/>
      <point x="98" y="639" type="curve"/>
      <point x="235" y="531" type="line"/>
      <point x="276" y="572"/>
      <point x="302" y="592"/>
      <point x="339" y="592" type="curve" smooth="yes"/>
      <point x="377" y="592"/>
      <point x="400" y="565"/>
      <point x="400" y="510" type="curve" smooth="yes"/>
      <point x="400" y="388"/>
      <point x="289" y="320"/>
      <point x="8" y="352" type="curve"/>
      <point x="4" y="317"/>
      <point x="6" y="281"/>
      <point x="14" y="238" type="curve"/>
      <point x="367" y="195"/>
      <point x="620" y="296"/>
    </contour>
    <contour>
      <point x="400" y="97" type="curve"/>
      <point x="411" y="123"/>
      <point x="409" y="182"/>
      <point x="404" y="206" type="curve"/>
      <point x="251" y="182"/>
      <point x="146" y="186"/>
      <point x="12" y="199" type="curve"/>
      <point x="6" y="165"/>
      <point x="13" y="100"/>
      <point x="18" y="76" type="curve"/>
      <point x="112" y="60"/>
      <point x="223" y="63"/>
    </contour>
  </outline>
</glyph>
<glyph name="estimated" format="1">
  <advance width="712"/>
  <unicode hex="212E"/>
  <outline>
    <contour>
      <point x="662" y="267" type="line" name=""/>
      <point x="662" y="274" type="line" smooth="yes" name=""/>
      <point x="662" y="426" name=""/>
      <point x="525" y="551" name=""/>
      <point x="356" y="551" type="curve" smooth="yes" name=""/>
      <point x="187" y="551" name=""/>
      <point x="50" y="426" name=""/>
      <point x="50" y="274" type="curve" smooth="yes" name=""/>
      <point x="50" y="122" name=""/>
      <point x="187" y="-1" name=""/>
      <point x="356" y="-1" type="curve" smooth="yes" name=""/>
      <point x="456" y="-1" name=""/>
      <point x="542" y="42" name=""/>
      <point x="598" y="106" type="curve" name=""/>
      <point x="554" y="106" type="line" name=""/>
      <point x="506" y="50" name=""/>
      <point x="437" y="16" name=""/>
      <point x="357" y="16" type="curve" smooth="yes" name=""/>
      <point x="282" y="16" name=""/>
      <point x="216" y="47" name=""/>
      <point x="169" y="96" type="curve" name=""/>
      <point x="164" y="102" name=""/>
      <point x="162" y="108" name=""/>
      <point x="162" y="114" type="curve" smooth="yes" name=""/>
      <point x="162" y="264" type="line" smooth="yes" name=""/>
      <point x="162" y="266" name=""/>
      <point x="163" y="267" name=""/>
      <point x="166" y="267" type="curve" smooth="yes" name=""/>
    </contour>
    <contour>
      <point x="550" y="286" type="line" smooth="yes" name=""/>
      <point x="550" y="283" name=""/>
      <point x="549" y="282" name=""/>
      <point x="547" y="282" type="curve" smooth="yes" name=""/>
      <point x="166" y="282" type="line" smooth="yes" name=""/>
      <point x="163" y="282" name=""/>
      <point x="162" y="283" name=""/>
      <point x="162" y="286" type="curve" smooth="yes" name=""/>
      <point x="162" y="434" type="line" smooth="yes" name=""/>
      <point x="162" y="443" name=""/>
      <point x="165" y="449" name=""/>
      <point x="170" y="453" type="curve" name=""/>
      <point x="217" y="504" name=""/>
      <point x="284" y="534" name=""/>
      <point x="357" y="534" type="curve" smooth="yes" name=""/>
      <point x="430" y="534" name=""/>
      <point x="495" y="504" name=""/>
      <point x="542" y="456" type="curve" smooth="yes" name=""/>
      <point x="547" y="451" name=""/>
      <point x="550" y="444" name=""/>
      <point x="550" y="437" type="curve" smooth="yes" name=""/>
    </contour>
  </outline>
</glyph>
<glyph name="uni2219" format="1">
  <advance width="297"/>
  <unicode hex="2219"/>
  <outline>
    <contour>
      <point x="268" y="309"/>
      <point x="272" y="376"/>
      <point x="277" y="454" type="curve"/>
      <point x="170" y="469"/>
      <point x="83" y="458"/>
      <point x="20" y="444" type="curve"/>
      <point x="20" y="368"/>
      <point x="25" y="318"/>
      <point x="30" y="235" type="curve"/>
      <point x="103" y="225"/>
      <point x="168" y="224"/>
      <point x="256" y="233" type="curve"/>
    </contour>
  </outline>
</glyph>
<glyph name="caron.alt" format="1">
  <advance width="260"/>
  <unicode hex="E189"/>
  <outline>
    <contour>
      <point x="166" y="425" type="curve"/>
      <point x="201" y="521"/>
      <point x="216" y="582"/>
      <point x="221" y="665" type="curve"/>
      <point x="175" y="679"/>
      <point x="114" y="684"/>
      <point x="55" y="680" type="curve"/>
      <point x="56" y="599"/>
      <point x="53" y="546"/>
      <point x="39" y="444" type="curve"/>
      <point x="76" y="434"/>
      <point x="118" y="428"/>
    </contour>
  </outline>
</glyph>
<glyph name="revcommaaccent" format="1">
  <advance width="260"/>
  <unicode hex="E18A"/>
  <outline>
    <contour>
      <point x="46" y="607" type="curve"/>
      <point x="88" y="598"/>
      <point x="142" y="595"/>
      <point x="195" y="598" type="curve"/>
      <point x="190" y="670"/>
      <point x="198" y="736"/>
      <point x="214" y="809" type="curve"/>
      <point x="182" y="815"/>
      <point x="141" y="819"/>
      <point x="100" y="820" type="curve"/>
      <point x="67" y="763"/>
      <point x="48" y="675"/>
    </contour>
  </outline>
</glyph>
